<svg
	xmlns="http://www.w3.org/2000/svg"
	width="17"
	height="20"
	viewBox="0 0 17 20"
	fill="none">
	<path
		d="M15.0804 4.48396C15.0453 4.10739 14.7224 3.81451 14.3432 3.81451H12.2019C12.0685 1.69456 10.2712 0 8.10888 0C5.94651 0 4.14922 1.69456 4.01582 3.81451H1.87452C1.48838 3.81451 1.17245 4.10042 1.13735 4.48396L0.0070195 17.1478L0.196578 17.1757L0 17.1967C0 18.7448 1.41818 20 3.1593 20H13.0444C14.7855 20 16.2037 18.7448 16.2037 17.1967L15.0664 4.47699L15.0804 4.48396ZM4.75299 7.47559C5.16019 7.47559 5.49017 7.14784 5.49017 6.74337V5.29289H10.7276V6.74337C10.7276 7.14784 11.0576 7.47559 11.4648 7.47559C11.872 7.47559 12.2019 7.14784 12.2019 6.74337V5.29289H13.6552L14.7224 17.2245C14.7083 17.9498 13.9571 18.5425 13.0444 18.5425H3.1593C2.24662 18.5425 1.4954 17.9498 1.48136 17.2524L2.5485 5.29986H4.00178V6.75035C4.00178 7.15481 4.33176 7.48257 4.73895 7.48257L4.75299 7.47559ZM5.51123 3.81451C5.6376 2.50349 6.76793 1.47141 8.1159 1.47141C9.46387 1.47141 10.5942 2.50349 10.7206 3.81451H5.51123Z"
		fill="#211F1C" />
</svg>
