<svg
	xmlns="http://www.w3.org/2000/svg"
	width="20"
	height="20"
	viewBox="0 0 20 20"
	fill="none">
	<path
		d="M19.7574 18.584L14.0701 12.8928C15.1752 11.5307 15.8356 9.80445 15.8356 7.91639C15.8356 3.54686 12.2776 0 7.92453 0C3.57143 0 0 3.54686 0 7.91639C0 12.2859 3.55795 15.8328 7.91105 15.8328C9.79784 15.8328 11.5229 15.1719 12.8841 14.0661L18.5714 19.7572C18.7332 19.9191 18.9488 20 19.1644 20C19.3801 20 19.5957 19.9191 19.7574 19.7572C20.0809 19.4336 20.0809 18.9076 19.7574 18.584ZM7.91105 14.174C4.46092 14.174 1.65768 11.3688 1.65768 7.91639C1.65768 4.46392 4.47439 1.67229 7.91105 1.67229C11.3477 1.67229 14.1644 4.47741 14.1644 7.92987C14.1644 11.3823 11.3612 14.1875 7.91105 14.1875V14.174Z"
		fill="#211F1C" />
</svg>
