<svg
	xmlns="http://www.w3.org/2000/svg"
	width="18"
	height="20"
	viewBox="0 0 18 20"
	fill="none">
	<path
		d="M13.1843 9.6286C14.184 8.60812 14.8026 7.2336 14.8026 5.72024C14.8026 2.56161 12.1485 0 8.88301 0C5.61752 0 2.9634 2.56161 2.9634 5.71329C2.9634 7.22666 3.58198 8.60118 4.58176 9.62166C1.61836 11.2183 0 14.5922 0 19.285C0 19.6807 0.330865 20 0.74085 20H17.0252C17.4352 20 17.766 19.6807 17.766 19.285C17.766 14.5922 16.1477 11.2183 13.1915 9.62166L13.1843 9.6286ZM8.88301 1.43006C11.3285 1.43006 13.3209 3.353 13.3209 5.71329C13.3209 8.07359 11.3285 9.99653 8.88301 9.99653C6.43749 9.99653 4.4451 8.07359 4.4451 5.71329C4.4451 3.353 6.43749 1.43006 8.88301 1.43006ZM1.49609 18.5699C1.61117 15.5432 2.52465 12.0028 5.84768 10.6074C6.73239 11.1211 7.77533 11.4266 8.88301 11.4266C9.99069 11.4266 11.0264 11.1281 11.9183 10.6074C15.2414 12.0028 16.1549 15.5432 16.2699 18.5699H1.49609Z"
		fill="#211F1C" />
</svg>
